<svg id="Layer_1" data-name="Layer 1" xmlns="http://www.w3.org/2000/svg" viewBox="0 0 1500 1000"><defs><style>.cls-1{fill:#9797e1;}.cls-2{fill:#fbfbfb;}</style></defs><path class="cls-1" d="M891.14,551.94c-9.93,46.76-46.31,91.42-97.47,105.53-10.27,2.83-43.77,10.6-81.45-4-21.52-8.34-40.7-23-57.13-44.12-34.71-44.56-37.52-94.29-13-144.94,22.85-47.09,82-77.2,135.68-70.2,59.82,7.8,101.23,54.62,112.82,100.85A129.72,129.72,0,0,1,891.14,551.94Z"/><path class="cls-2" d="M768.19,529.11q27.67-27.81,55.36-55.62a64.39,64.39,0,0,1,5.79-5.55c5.75-4.48,11.89-4.9,17.64-.32,6.64,5.29,4.74,11.87.31,16.95-9.73,11.16-19.64,22.31-30.53,32.3-27.18,24.93-52.18,52-77.89,78.34-7.77,8-14.56,11.31-23.8,1-12.46-14-26.19-26.79-39.56-39.92-6.87-6.74-10.8-14.8-3.91-22.5,8.27-9.24,15.13-1.5,21.45,4.53,8.09,7.72,16.31,15.31,24.48,23,1.64,1.53,4.21,3.64,7.73,3.74,4.83.14,8.56-3.68,10.1-5.48Z"/></svg>